HIERARCHY
ROOT root
{
	OFFSET	0	13.1	24.9
	CHANNELS 6  Xposition Yposition Zposition Xrotation Yrotation Zrotation
	JOINT spine_1
	{
		OFFSET	0	9.99999	0
		CHANNELS 3  Xrotation Yrotation Zrotation
		JOINT spine_2
		{
			OFFSET	0	112	-10
			CHANNELS 3  Xrotation Yrotation Zrotation
			JOINT spine_3
			{
				OFFSET	0	206.5	19.3
				CHANNELS 3  Xrotation Yrotation Zrotation
				JOINT spine_4
				{
					OFFSET	0	110.4	14.6
					CHANNELS 3  Xrotation Yrotation Zrotation
					JOINT neck_1
					{
						OFFSET	0	71.8	-50.3
						CHANNELS 3  Xrotation Yrotation Zrotation
						JOINT neck_2
						{
							OFFSET	0	86.2	-25.8
							CHANNELS 3  Xrotation Yrotation Zrotation
							JOINT head_ee
							{
								OFFSET	0	179.8	-8.7
								CHANNELS 3  Xrotation Yrotation Zrotation
								End Site
								{
									OFFSET	1	0	0
								}
							}
						}
					}
					JOINT left_clavicle
					{
						OFFSET	-43.2	22.4	-70.8
						CHANNELS 3  Xrotation Yrotation Zrotation
						JOINT left_shoulder
						{
							OFFSET	-93.9	-5.79999	48.7
							CHANNELS 3  Xrotation Yrotation Zrotation
							JOINT left_elbow
							{
								OFFSET	-291.4	-30.8	15.2
								CHANNELS 3  Xrotation Yrotation Zrotation
								JOINT left_lowarm_twist
								{
									OFFSET	-110.7	-3.89999	13.6
									CHANNELS 3  Xrotation Yrotation Zrotation
									JOINT left_hand
									{
										OFFSET	-110.7	-3.89999	13.6
										CHANNELS 3  Xrotation Yrotation Zrotation
										JOINT left_ee
										{
											OFFSET	-80.8	-5.10001	12.1
											CHANNELS 3  Xrotation Yrotation Zrotation
											End Site
											{
												OFFSET	1	0	0
											}
										}
									}
								}
							}
						}
					}
					JOINT right_clavicle
					{
						OFFSET	43.2	22.4	-70.8
						CHANNELS 3  Xrotation Yrotation Zrotation
						JOINT right_shoulder
						{
							OFFSET	93.9	-5.79999	48.7
							CHANNELS 3  Xrotation Yrotation Zrotation
							JOINT right_elbow
							{
								OFFSET	291.4	-30.8	15.2
								CHANNELS 3  Xrotation Yrotation Zrotation
								JOINT right_lowarm_twist
								{
									OFFSET	110.7	-3.89999	13.6
									CHANNELS 3  Xrotation Yrotation Zrotation
									JOINT right_hand
									{
										OFFSET	110.7	-3.89999	13.6
										CHANNELS 3  Xrotation Yrotation Zrotation
										JOINT right_ee
										{
											OFFSET	80.8	-5.10001	12.1
											CHANNELS 3  Xrotation Yrotation Zrotation
											End Site
											{
												OFFSET	1	0	0
											}
										}
									}
								}
							}
						}
					}
				}
			}
		}
	}
	JOINT left_hip
	{
		OFFSET	-82.8	-127.5	0.300001
		CHANNELS 3  Xrotation Yrotation Zrotation
		JOINT left_knee
		{
			OFFSET	-28.2	-396.7	2.2
			CHANNELS 3  Xrotation Yrotation Zrotation
			JOINT left_ankle
			{
				OFFSET	-11.7	-411.3	35.4
				CHANNELS 3  Xrotation Yrotation Zrotation
				JOINT left_toes
				{
					OFFSET	0	-60	-88.6
					CHANNELS 3  Xrotation Yrotation Zrotation
					JOINT left_foot_ee
					{
						OFFSET	-22.5	-16.5	-42.2
						CHANNELS 3  Xrotation Yrotation Zrotation
						End Site
						{
							OFFSET	1	0	0
						}
					}
				}
			}
		}
	}
	JOINT right_hip
	{
		OFFSET	82.8	-127.5	0.300001
		CHANNELS 3  Xrotation Yrotation Zrotation
		JOINT right_knee
		{
			OFFSET	28.2	-396.7	2.2
			CHANNELS 3  Xrotation Yrotation Zrotation
			JOINT right_ankle
			{
				OFFSET	11.7	-411.3	35.4
				CHANNELS 3  Xrotation Yrotation Zrotation
				JOINT right_toes
				{
					OFFSET	0	-60	-88.6
					CHANNELS 3  Xrotation Yrotation Zrotation
					JOINT right_foot_ee
					{
						OFFSET	22.5	-16.5	-42.2
						CHANNELS 3  Xrotation Yrotation Zrotation
						End Site
						{
							OFFSET	1	0	0
						}
					}
				}
			}
		}
	}
}
MOTION
Frames: 15
Frame Time: 0.02
3647.11 687.144 -351.635 0.913914 43.6093 -5.94888 -3.09112 0.539045 3.49954 -3.08437 0.31541 3.52671 -3.05574 -0.620148 3.4861 -3.07269 -0.0621603 3.54022 9.56297 10.2465 -4.87927 10.5523 21.3039 -6.01443 -0.0 0.0 -0.0 2.34066 -4.06265 4.18058 19.1868 -7.94275 60.9522 3.75941 -61.749 2.24821 14.441 0.280969 -1.81845 1.52384 -11.3775 5.44838 -0.0 0.0 -0.0 12.6949 19.7526 -25.554 -14.2897 2.57486 -66.6684 0.269866 7.61455 -0.0179589 18.5715 -0.276337 2.34589 -3.53325 -8.3041 19.8145 0.0 0.0 0.0 -26.8857 34.4665 19.7287 -0.0931148 0.00382284 0.013778 26.3476 -17.0586 -3.80101 39.2085 -0.0 -0.0 -0.0 0.0 -0.0 34.5004 19.7275 -8.01619 -9.18147 -0.267762 -1.38213 16.2645 -19.0431 2.30435 34.5606 -0.0 -0.0 0.0 0.0 0.0 
3627.89 687.062 -359.497 0.710897 44.1011 -5.48364 -3.08215 0.408746 3.37467 -3.07583 0.193305 3.39382 -3.05617 -0.703309 3.32584 -3.07156 -0.169546 3.39508 10.8487 10.5122 -5.93553 12.0938 22.5287 -7.58306 -0.0 0.0 -0.0 2.34648 -3.79506 4.21446 18.7311 -8.73906 61.4114 3.81322 -62.0867 2.29568 14.0207 0.279308 -1.76479 1.4958 -11.1372 5.36333 -0.0 0.0 -0.0 12.5369 19.098 -25.2318 -14.9497 2.4316 -66.5922 0.284989 8.03582 -0.0200179 19.3571 -0.271154 2.44609 -3.58699 -9.17678 19.6921 0.0 0.0 0.0 -27.4158 34.6841 19.6503 -0.495636 0.0200913 0.0734071 27.8391 -17.8026 -4.00154 39.1271 -0.0 -0.0 -0.0 0.0 -0.0 34.066 20.0175 -7.72491 -10.231 -0.284171 -1.54233 15.3347 -18.1904 2.17403 34.6702 -0.0 -0.0 0.0 0.0 0.0 
3612.52 684.441 -370.569 -0.19621 44.5311 -4.23802 -3.0958 0.460981 3.25351 -3.08995 0.253131 3.27622 -3.06762 -0.615243 3.22793 -3.08214 -0.0980183 3.28451 12.506 10.423 -6.65139 13.9402 22.8182 -8.80568 -0.0 0.0 -0.0 2.3221 -2.14555 4.30196 17.4455 -8.98053 62.2222 3.81266 -62.0833 2.29519 12.3426 0.268759 -1.55072 1.52991 -10.8536 5.71789 -0.0 0.0 -0.0 12.5962 19.2853 -25.3569 -15.2129 0.765004 -67.423 0.305553 8.60726 -0.0229942 20.2787 -0.263322 2.56354 -3.59397 -9.15306 19.7535 0.0 0.0 0.0 -28.2333 34.6067 19.4297 -0.750511 0.0301748 0.111221 27.8364 -19.788 -4.06647 39.4373 -0.0 -0.0 -0.0 0.0 -0.0 34.0838 20.2935 -7.43549 -14.8342 -0.321394 -2.24745 13.5637 -16.7627 1.92731 35.7869 -0.0 -0.0 0.0 0.0 0.0 
3594.26 681.055 -381.344 -0.516041 45.2855 -4.78399 -3.08649 0.518532 3.24696 -3.08068 0.310982 3.27334 -3.05493 -0.557853 3.24044 -3.06958 -0.0393732 3.28782 13.5166 10.3031 -7.03834 15.0517 22.846 -9.4941 -0.0 0.0 -0.0 2.3161 -0.966138 4.38536 16.487 -9.11638 62.7913 3.80265 -62.021 2.28635 11.1688 0.257655 -1.4012 1.55276 -10.6467 5.96289 -0.0 0.0 -0.0 12.4419 19.5521 -24.9824 -15.1901 -0.412936 -67.4129 0.332327 9.34866 -0.0271724 20.9526 -0.2564 2.64935 -3.59884 -9.13764 19.7958 0.0 0.0 0.0 -28.8119 34.5789 19.1595 -0.923333 0.0369161 0.136887 27.8202 -21.2953 -4.1188 39.6533 -0.0 -0.0 -0.0 0.0 -0.0 34.1449 20.4728 -7.28606 -18.0298 -0.313885 -2.73763 12.029 -15.6825 1.71384 36.464 -0.0 -0.0 0.0 0.0 0.0 
3577.12 681.399 -389.022 -0.0590786 45.9583 -5.18382 -3.12229 0.642553 3.1675 -3.11681 0.4398 3.20192 -3.08421 -0.416237 3.20507 -3.09853 0.0948936 3.23056 12.1101 10.0026 -6.4469 13.4178 22.0107 -8.43811 -0.0 0.0 -0.0 2.27374 -1.10321 4.29193 14.8219 -8.7409 62.3455 3.39531 -59.2522 1.93123 10.213 0.246351 -1.27964 1.51788 -9.79985 6.09368 -0.0 0.0 -0.0 12.6016 20.5837 -25.2777 -13.2502 -1.01806 -66.3897 0.405313 11.3531 -0.0402884 22.0761 -0.242618 2.79219 -3.63138 -9.69359 19.7022 0.0 0.0 0.0 -29.072 34.5955 18.859 -1.02688 0.0409181 0.152273 27.2727 -22.6852 -4.10532 39.7506 -0.0 -0.0 -0.0 0.0 -0.0 34.1354 20.2186 -6.93496 -20.1414 -0.293931 -3.06099 9.75177 -14.9948 1.39799 36.3392 -0.0 -0.0 0.0 0.0 0.0 
3568.39 675.016 -403.531 -1.40769 46.0276 -3.69215 -2.9946 0.669112 2.78723 -2.99041 0.49047 2.82412 -2.95994 -0.261799 2.85439 -2.97126 0.192094 2.85992 10.8678 10.0745 -5.21399 11.9339 21.1605 -6.64197 -0.0 0.0 -0.0 1.96116 -1.8189 3.62184 14.9629 -8.93368 63.3686 3.26838 -58.2856 1.8227 9.36845 0.234677 -1.17239 1.5848 -9.18985 6.8118 -0.0 0.0 -0.0 13.1515 21.6874 -26.4667 -11.7648 -1.38072 -66.0508 0.456063 12.7308 -0.050877 22.9826 -0.229457 2.90723 -3.66146 -9.35672 20.102 0.0 0.0 0.0 -29.3985 34.5799 18.7164 -3.73295 0.135597 0.556744 27.3764 -23.7074 -4.15981 40.1731 -0.0 -0.0 -0.0 0.0 -0.0 35.2375 19.6679 -7.4054 -20.8329 -0.284809 -3.16669 8.14885 -14.2444 1.17244 35.8827 -0.0 -0.0 0.0 0.0 0.0 
3552.86 670.758 -409.154 -1.32858 44.8102 -3.34174 -2.9538 0.706586 2.63368 -2.95011 0.537628 2.67326 -2.9193 -0.174974 2.72114 -2.92954 0.256812 2.71464 10.0339 10.2017 -4.23444 10.9476 20.5878 -5.27879 -0.0 0.0 -0.0 1.7294 -0.937812 3.24772 14.4333 -8.89376 64.8049 3.09286 -56.8557 1.67453 8.74842 0.225101 -1.09377 1.60399 -8.32147 7.31611 -0.0 0.0 -0.0 13.1153 23.2281 -26.2422 -11.7641 -1.51428 -64.9462 0.478093 13.3243 -0.055843 23.4194 -0.222466 2.96259 -3.66438 -9.10555 20.2661 0.0 0.0 0.0 -28.6816 34.4068 17.675 -5.73345 0.193243 0.858331 26.6053 -24.3549 -4.09003 39.9124 -0.0 -0.0 -0.0 0.0 -0.0 35.6664 19.3591 -7.39664 -21.4698 -0.275277 -3.26396 6.31586 -12.6336 0.911407 35.335 -0.0 -0.0 0.0 0.0 0.0 
3528.55 680.472 -419.574 -2.44416 44.3624 -2.95411 -2.76837 0.783491 2.62483 -2.76474 0.61494 2.66932 -2.73047 -0.090174 2.73771 -2.74076 0.343164 2.71762 9.45581 10.3082 -3.57653 10.2791 20.2455 -4.37667 -0.0 0.0 -0.0 1.55078 0.487855 3.03209 11.9479 -8.50406 66.2086 2.85646 -54.7403 1.47898 8.31281 0.217864 -1.0386 1.61003 -7.59765 7.66717 -0.0 0.0 -0.0 13.1165 24.651 -26.0991 -11.1965 -1.46071 -63.7556 0.501064 13.94 -0.0612571 23.7437 -0.217002 3.00365 -3.65102 -8.87271 20.3068 0.0 0.0 0.0 -28.6708 34.1019 17.258 -8.37192 0.253101 1.25877 25.968 -24.9152 -4.03218 39.7309 -0.0 -0.0 -0.0 0.0 -0.0 35.8157 19.1702 -7.34125 -22.0653 -0.265386 -3.35481 4.86905 -11.3641 0.704541 34.9057 -0.0 -0.0 0.0 0.0 0.0 
3508.76 685.765 -429.912 -2.28178 43.3353 -3.37176 -2.67466 0.850931 2.48555 -2.67149 0.691097 2.53461 -2.63579 0.0224234 2.62699 -2.64516 0.436885 2.59053 9.07093 10.3298 -3.18467 9.83768 19.9805 -3.83854 -0.0 0.0 -0.0 1.42958 1.82132 2.92374 9.56372 -8.05348 67.2272 2.65819 -52.777 1.31905 8.0285 0.212915 -1.00262 1.60538 -6.98594 7.89627 -0.0 0.0 -0.0 13.5854 25.7284 -27.0673 -10.454 -1.20753 -63.4942 0.517499 14.3785 -0.0652774 23.9695 -0.213061 3.03223 -3.64089 -8.70747 20.3309 0.0 0.0 0.0 -27.982 33.8637 17.1366 -10.1209 0.282588 1.52552 25.4273 -25.2975 -3.97816 39.5663 -0.0 -0.0 -0.0 0.0 -0.0 34.9857 19.4129 -6.62996 -22.9327 -0.249293 -3.48694 3.76925 -10.4026 0.546654 34.5748 -0.0 -0.0 0.0 0.0 0.0 
3485.48 690.597 -444.874 -1.619 42.6451 -4.18273 -2.62712 1.0091 2.56387 -2.62386 0.843971 2.62283 -2.57962 0.150639 2.75107 -2.58971 0.58307 2.69283 9.55857 10.2993 -3.05019 10.3211 19.7413 -3.73727 -0.0 0.0 -0.0 1.41053 2.91711 2.98881 4.75583 -8.32272 68.0543 2.2981 -48.6966 1.04008 7.51853 0.20359 -0.938141 1.57 -7.60893 7.38982 -0.0 0.0 -0.0 14.0307 26.7603 -27.9787 -9.3855 -1.40907 -63.4799 0.488573 13.6056 -0.0582832 24.3155 -0.206804 3.07597 -3.46756 -8.71613 19.1311 0.0 0.0 0.0 -21.2735 35.1412 14.5409 -20.1934 0.29329 3.06894 25.8504 -26.2124 -4.0741 39.2501 -0.0 -0.0 -0.0 0.0 -0.0 32.428 19.4781 -5.82223 -24.6278 -0.212076 -3.74439 3.92624 -9.48472 0.568905 34.5174 -0.0 -0.0 0.0 0.0 0.0 
3458.65 697.12 -448.84 -2.19439 42.8924 -4.35197 -2.48707 0.957216 2.57609 -2.48372 0.791411 2.63173 -2.44196 0.104085 2.7461 -2.45209 0.536315 2.69526 10.7326 9.97506 -3.43947 11.5368 19.4012 -4.36836 -0.0 0.0 -0.0 1.91059 2.30337 3.87472 0.986451 -8.8509 68.5713 1.89061 -43.1191 0.747061 8.14706 0.215 -1.01762 1.47732 -7.36018 6.86548 -0.0 0.0 -0.0 14.1017 27.0439 -28.1076 -8.25909 -1.52755 -62.0591 0.482663 13.447 -0.056901 24.7658 -0.198263 3.13287 -3.14963 -8.77346 16.9324 0.0 0.0 0.0 -16.6973 35.5557 11.8448 -27.266 0.139037 4.14264 24.1243 -27.5104 -3.90194 39.3461 -0.0 -0.0 -0.0 0.0 -0.0 30.6461 19.4476 -5.30955 -25.7908 -0.18214 -3.92035 2.86034 -9.13535 0.415617 34.2286 -0.0 -0.0 0.0 0.0 0.0 
3437.57 699.566 -452.105 -3.32022 42.4683 -3.64173 -2.16303 0.910196 2.4646 -2.15996 0.751574 2.51748 -2.12234 0.108879 2.62495 -2.13157 0.521936 2.57487 11.5329 9.32964 -4.43531 12.4079 19.1601 -5.71471 -0.0 0.0 -0.0 2.25965 1.85693 4.49865 -1.5746 -8.73067 68.962 1.52895 -37.1376 0.513647 8.76673 0.225396 -1.09609 1.31727 -6.90777 5.97066 -0.0 0.0 -0.0 14.1819 27.3168 -28.2585 -6.92745 -1.29016 -60.8195 0.497521 13.8452 -0.0604064 25.0729 -0.192182 3.17163 -2.91913 -8.81551 15.3566 0.0 0.0 0.0 -14.908 34.9625 10.1262 -32.2141 -0.0470903 4.87897 22.9406 -28.0732 -3.76317 39.3266 -0.0 -0.0 -0.0 0.0 -0.0 29.6293 19.4462 -4.70364 -23.6444 -0.234595 -3.59516 1.86823 -8.89924 0.272152 33.3785 -0.0 -0.0 0.0 0.0 0.0 
3409.6 695.895 -462.063 -4.1486 42.2898 -2.94854 -1.77393 0.869787 2.32783 -1.7712 0.719941 2.37842 -1.73756 0.129095 2.48159 -1.74578 0.519278 2.43011 12.0044 8.44086 -5.58989 12.9384 18.7343 -7.22435 -0.0 0.0 -0.0 2.94535 2.5788 5.84505 -3.17606 -8.68903 69.396 1.30069 -32.7931 0.382743 8.7002 0.224321 -1.08766 0.962869 -6.49763 3.744 -0.0 0.0 -0.0 14.0166 26.9514 -27.9208 -3.71288 0.272338 -59.5964 0.521168 14.4762 -0.0661915 25.4841 -0.183717 3.22347 -2.7078 -9.5976 13.5386 0.0 0.0 0.0 -12.2494 32.7188 10.8885 -36.6828 -0.269326 5.52828 21.3042 -28.3541 -3.5416 38.0147 -0.0 -0.0 -0.0 0.0 -0.0 27.9448 19.8671 -3.96546 -22.6654 -0.254467 -3.44624 3.54721 -7.60296 0.514437 32.9027 -0.0 -0.0 0.0 0.0 0.0 
3387.5 698.889 -465.34 -4.1575 41.764 -3.24526 -1.50879 0.86475 2.22034 -1.50633 0.721749 2.27083 -1.4745 0.167553 2.37682 -1.48197 0.540724 2.32059 12.3267 7.83757 -6.38125 13.3068 18.4638 -8.26765 -0.0 0.0 -0.0 3.82625 4.69569 7.60251 -5.20385 -8.52534 70.7447 1.12828 -29.2006 0.29391 8.66546 0.223755 -1.08326 0.693965 -6.03191 2.12418 -0.0 0.0 -0.0 13.9099 26.6913 -27.7054 -1.59761 1.52447 -58.8133 0.545896 15.1322 -0.0725101 25.8325 -0.17625 3.26735 -2.51097 -10.004 12.0323 0.0 0.0 0.0 -10.0654 30.9111 11.1488 -39.7966 -0.453875 5.96979 19.8147 -28.5211 -3.3296 36.8508 -0.0 -0.0 -0.0 0.0 -0.0 25.8342 20.3032 -2.33538 -22.0549 -0.265569 -3.35321 4.71364 -6.63765 0.681565 32.5665 -0.0 -0.0 0.0 0.0 0.0 
3372.52 701.699 -468.573 -3.70744 41.1228 -3.75409 -1.60841 0.852284 2.1932 -1.60601 0.711034 2.24296 -1.57494 0.159567 2.34749 -1.58224 0.52821 2.29288 10.5562 8.37085 -6.26017 11.5259 19.3751 -7.84853 -0.0 0.0 -0.0 3.97679 8.31234 8.00724 -6.98548 -8.15027 70.2598 1.024 -26.8961 0.244865 8.67296 0.223877 -1.08421 0.590465 -6.0894 1.40136 -0.0 0.0 -0.0 13.4667 26.6904 -26.674 -0.242717 2.38029 -58.1614 0.56507 15.6381 -0.077597 26.4139 -0.1632 3.34047 -2.21941 -9.56492 10.3437 0.0 0.0 0.0 -5.3717 28.8785 8.87022 -44.7566 -0.796771 6.65094 17.8925 -28.5411 -3.03985 35.5999 -0.0 -0.0 -0.0 0.0 -0.0 23.9343 20.5482 -1.13593 -21.6876 -0.271769 -3.2972 6.23542 -5.93819 0.897866 32.625 -0.0 -0.0 0.0 0.0 0.0 
